<svg width="178" height="96" viewBox="0 0 178 96" fill="none" xmlns="http://www.w3.org/2000/svg">
<g clip-path="url(#clip0_245_139)">
<path d="M4.60971 77.6722H0V99.2053H178V15.9133L171.058 32.1838C170.91 32.5312 170.697 32.8476 170.432 33.1162L166.677 36.9123C165.007 38.6003 162.132 37.772 161.616 35.4546L157.746 18.072C157.231 15.7573 154.36 14.9273 152.689 16.6097L152.452 16.8487C150.979 18.3312 148.48 17.8919 147.602 15.9962L144.762 9.87008C143.516 7.18311 139.544 7.73445 139.078 10.6591L135.419 33.5889C135.071 35.7724 132.371 36.6098 130.848 35.0068C130.344 34.4763 129.644 34.176 128.913 34.176H125.724C124.362 34.176 123.171 35.0931 122.823 36.4096L119.052 50.6803C118.362 53.2952 114.835 53.7325 113.527 51.3656L113.208 50.7893L110.694 45.5771C109.444 42.9835 105.612 43.4705 105.05 46.2946L102.186 60.6809C101.582 63.72 97.3273 63.959 96.3859 61.0067L92.3086 48.2201C91.4836 45.6328 87.8982 45.4363 86.7953 47.9178L85.8578 50.0273C85.2179 51.4671 83.1912 51.5131 82.4866 50.1039C81.7775 48.6857 79.7342 48.7438 79.1068 50.2L78.0344 52.6895C76.9202 55.2759 73.178 55.0404 72.3969 52.3347L70.3328 45.1853C69.5641 42.5224 65.9044 42.237 64.7321 44.7486L58.6659 57.7448C57.98 59.2142 56.2505 59.8726 54.761 59.2313L50.2106 57.2721C48.8925 56.7045 47.357 57.15 46.5473 58.3348L45.8928 59.2925C44.706 61.0292 42.1468 61.0369 40.9494 59.3074L40.1567 58.1623C38.8047 56.2094 35.8271 56.5276 34.9184 58.7222L32.791 63.8596C31.8601 66.1075 28.7071 66.1923 27.6568 63.9976C26.4859 61.5508 22.8711 62.0169 22.3593 64.6808L19.2489 80.867L12.8523 74.4716C11.5805 73.2001 9.48357 73.3255 8.37239 74.7394L6.96849 76.5258C6.39972 77.2496 5.53019 77.6722 4.60971 77.6722Z" fill="url(#paint0_linear_245_139)"/>
<path d="M0 77.6722H4.60971C5.53019 77.6722 6.39972 77.2496 6.96849 76.5259L8.37239 74.7394C9.48357 73.3255 11.5805 73.2001 12.8523 74.4716L16.5824 78.2009C17.7168 79.3351 19.6578 78.7393 19.9605 77.164L22.3593 64.6808C22.8711 62.0169 26.4859 61.5508 27.6568 63.9976V63.9976C28.7071 66.1923 31.8601 66.1075 32.791 63.8596L34.9184 58.7222C35.8271 56.5276 38.8047 56.2094 40.1567 58.1623L40.9494 59.3074C42.1468 61.0369 44.706 61.0292 45.8928 59.2925L46.5473 58.3348C47.357 57.15 48.8925 56.7045 50.2106 57.2721L54.761 59.2313C56.2505 59.8726 57.98 59.2142 58.6659 57.7448L64.7321 44.7486C65.9044 42.237 69.5641 42.5224 70.3329 45.1853L72.3969 52.3347C73.178 55.0404 76.9201 55.2759 78.0344 52.6895L79.1068 50.2C79.7342 48.7438 81.7775 48.6857 82.4866 50.1039V50.1039C83.1912 51.5131 85.2179 51.4671 85.8578 50.0273L86.7953 47.9178C87.8982 45.4363 91.4836 45.6328 92.3086 48.2201L96.3859 61.0067C97.3273 63.959 101.582 63.72 102.186 60.6809L105.05 46.2946C105.612 43.4705 109.444 42.9835 110.694 45.5771L113.208 50.7893L113.527 51.3656C114.835 53.7325 118.362 53.2952 119.052 50.6803L122.823 36.4096C123.171 35.0931 124.362 34.176 125.724 34.176H128.913C129.644 34.176 130.344 34.4763 130.848 35.0068V35.0068C132.371 36.6098 135.071 35.7724 135.419 33.5889L139.078 10.6591C139.544 7.73445 143.516 7.18311 144.762 9.87008L147.602 15.9962C148.48 17.8919 150.979 18.3312 152.452 16.8487L152.689 16.6097C154.36 14.9273 157.231 15.7573 157.746 18.072L161.616 35.4546C162.132 37.772 165.007 38.6003 166.677 36.9123L170.432 33.1162C170.697 32.8476 170.91 32.5312 171.058 32.1838L178 15.9133" stroke="#F6543E" stroke-width="2" stroke-linecap="round"/>
</g>
<defs>
<linearGradient id="paint0_linear_245_139" x1="89" y1="45.8053" x2="89" y2="99.2053" gradientUnits="userSpaceOnUse">
<stop stop-color="#F2ABA2" stop-opacity="0.44"/>
<stop offset="1" stop-color="#FF8777" stop-opacity="0"/>
</linearGradient>
<clipPath id="clip0_245_139">
<rect width="178" height="95.8826" fill="white"/>
</clipPath>
</defs>
</svg>
