<svg width="180" height="96" viewBox="0 0 180 96" fill="none" xmlns="http://www.w3.org/2000/svg">
<path d="M6.35524 80.4677H2.424C1.63755 80.4677 1 81.1053 1 81.8917V94.4587C1 95.2451 1.63754 95.8827 2.42399 95.8827H177.576C178.362 95.8827 179 95.2451 179 94.4586V15.6944L175.709 23.7848C174.579 26.5635 170.52 26.1461 169.979 23.1955L168.203 13.5108C168.079 12.8347 167.49 12.3436 166.803 12.3436H158.167C157.776 12.3436 157.402 12.5045 157.133 12.7885L151.886 18.3292C151.186 19.0677 149.961 18.856 149.549 17.9257L145.833 9.5163C144.616 6.76357 140.556 7.31677 140.12 10.2947L135.525 41.6977C135.343 42.9442 133.75 43.3573 132.985 42.3566L128.267 36.188C127.843 35.6349 126.987 35.7192 126.679 36.3441C126.313 37.0885 125.232 37.0266 124.953 36.2452L122.373 29.0105C121.96 27.8522 120.372 27.727 119.782 28.8061L116.343 35.1005C116.031 35.6711 115.373 35.958 114.743 35.7978L110.671 34.7629C109.883 34.5625 109.087 35.0621 108.925 35.8593L102.782 66.0833C102.688 66.5433 102.374 66.9277 101.942 67.1108L94.0851 70.4394C93.3502 70.7508 92.5029 70.3974 92.207 69.6562L86.7935 56.0939C86.3362 54.9481 84.7375 54.8863 84.1931 55.9934L82.5581 59.3184C82.3992 59.6415 82.1239 59.8924 81.7876 60.0206L76.4246 62.0656C75.984 62.2336 75.6552 62.6088 75.5464 63.0676L72.3718 76.4542C72.1365 77.4464 70.965 77.877 70.1432 77.2732L63.4002 72.32C63.1959 72.1699 63.0354 71.968 62.9352 71.7351L57.1301 58.2409C57.0749 58.1124 57.001 57.9928 56.9108 57.8858L53.0275 53.2792C52.5183 52.6751 51.6147 52.601 51.0139 53.1142L39.4631 62.9801C38.8623 63.4932 37.9587 63.4192 37.4495 62.8151L34.3043 59.084C33.8148 58.5033 32.9558 58.4089 32.352 58.8695L29.3533 61.1563C29.1461 61.3143 28.9862 61.5262 28.8911 61.7689L21.0639 81.7391C20.684 82.7085 19.4262 82.9557 18.7076 82.2022L12.6226 75.8215C12.0149 75.1843 10.9805 75.2457 10.4525 75.9503L7.49482 79.8976C7.22592 80.2565 6.80368 80.4677 6.35524 80.4677Z" fill="url(#paint0_linear_25_1116)"/>
<path d="M1 80.6492H6.06708C6.69691 80.6492 7.28994 80.3525 7.66762 79.8485L10.0444 76.6765C10.7859 75.6868 12.2388 75.6006 13.0923 76.4955L18.0841 81.7299C19.0934 82.7882 20.86 82.441 21.3936 81.0795L28.8322 62.1005C28.9658 61.7596 29.1904 61.462 29.4815 61.24L31.9158 59.3835C32.7639 58.7368 33.9703 58.8693 34.6578 59.6848L37.0758 62.5533C37.791 63.4017 39.0602 63.5057 39.9039 62.785L50.5731 53.6722C51.4169 52.9515 52.686 53.0555 53.4012 53.9039L56.8558 58.0021C56.9824 58.1523 57.0862 58.3203 57.1638 58.5008L62.8733 71.7727C63.014 72.0998 63.2395 72.3834 63.5265 72.5942L69.4424 76.9399C70.5966 77.7878 72.242 77.1831 72.5724 75.7896L75.476 63.5457C75.6288 62.9013 76.0907 62.3744 76.7095 62.1384L81.5759 60.2828C82.0483 60.1027 82.435 59.7503 82.6581 59.2966L83.6215 57.3373C84.3861 55.7825 86.6314 55.8692 87.2737 57.4784L91.989 69.2913C92.4046 70.3324 93.5945 70.8287 94.6267 70.3914L101.662 67.4107C102.269 67.1535 102.711 66.6136 102.842 65.9675L108.805 36.6333C109.032 35.5136 110.15 34.8118 111.257 35.0933L114.31 35.8692C115.195 36.0942 116.12 35.6912 116.557 34.8898L119.166 30.1155C119.994 28.5998 122.225 28.7758 122.805 30.4025L124.953 36.4267C125.232 37.208 126.313 37.2699 126.679 36.5255V36.5255C126.987 35.9006 127.843 35.8164 128.267 36.3695L132.155 41.4534C133.23 42.8588 135.467 42.2787 135.723 40.5279L140.622 7.04458C140.913 5.05933 143.62 4.69052 144.431 6.52567L149.199 17.3155C149.777 18.6221 151.499 18.9195 152.481 17.8822L156.963 13.1499C157.34 12.751 157.865 12.5251 158.415 12.5251H166.323C167.288 12.5251 168.116 13.2148 168.29 14.1644L170.597 26.7486C170.958 28.7157 173.664 28.994 174.417 27.1415L179 15.8759" stroke="#34C759" stroke-width="2" stroke-linecap="round"/>
<defs>
<linearGradient id="paint0_linear_25_1116" x1="90" y1="43.7725" x2="90" y2="95.8826" gradientUnits="userSpaceOnUse">
<stop stop-color="#85FFA4" stop-opacity="0.4"/>
<stop offset="1" stop-color="#34C759" stop-opacity="0"/>
</linearGradient>
</defs>
</svg>
